<mxfile host="65bd71144e">
    <diagram id="xuXYhLIkIfQOpS6Bkv3G" name="Page-1">
        <mxGraphModel dx="1275" dy="398" grid="1" gridSize="10" guides="1" tooltips="1" connect="1" arrows="1" fold="1" page="1" pageScale="1" pageWidth="827" pageHeight="1169" math="0" shadow="0">
            <root>
                <mxCell id="0"/>
                <mxCell id="1" parent="0"/>
                <mxCell id="22" value="" style="endArrow=none;startArrow=none;endFill=0;startFill=0;endSize=10;html=1;verticalAlign=bottom;dashed=1;labelBackgroundColor=none;dashPattern=10 10;fontSize=15;" parent="1" edge="1">
                    <mxGeometry width="160" relative="1" as="geometry">
                        <mxPoint x="66" y="130" as="sourcePoint"/>
                        <mxPoint x="66" y="1640" as="targetPoint"/>
                    </mxGeometry>
                </mxCell>
                <mxCell id="23" value="" style="endArrow=none;startArrow=none;endFill=0;startFill=0;endSize=8;html=1;verticalAlign=bottom;dashed=1;labelBackgroundColor=none;dashPattern=10 10;fontSize=15;" parent="1" edge="1">
                    <mxGeometry width="160" relative="1" as="geometry">
                        <mxPoint x="300" y="120" as="sourcePoint"/>
                        <mxPoint x="300" y="1650" as="targetPoint"/>
                    </mxGeometry>
                </mxCell>
                <mxCell id="24" value="&lt;span style=&quot;background-color: rgb(255, 255, 255); font-size: 15px;&quot;&gt;Utilisateur&lt;/span&gt;" style="shape=umlActor;verticalLabelPosition=bottom;verticalAlign=top;html=1;strokeWidth=2;fontSize=15;fontStyle=1;fillColor=#000099;strokeColor=#000099;" parent="1" vertex="1">
                    <mxGeometry x="50" y="40" width="30" height="60" as="geometry"/>
                </mxCell>
                <mxCell id="32" value="" style="endArrow=none;startArrow=none;endFill=0;startFill=0;endSize=8;html=1;verticalAlign=bottom;dashed=1;labelBackgroundColor=none;dashPattern=10 10;fontSize=15;" parent="1" edge="1">
                    <mxGeometry width="160" relative="1" as="geometry">
                        <mxPoint x="514" y="120" as="sourcePoint"/>
                        <mxPoint x="514" y="1650" as="targetPoint"/>
                    </mxGeometry>
                </mxCell>
                <mxCell id="33" value="" style="endArrow=none;startArrow=none;endFill=0;startFill=0;endSize=8;html=1;verticalAlign=bottom;dashed=1;labelBackgroundColor=none;dashPattern=10 10;fontSize=15;" parent="1" edge="1">
                    <mxGeometry width="160" relative="1" as="geometry">
                        <mxPoint x="790" y="120" as="sourcePoint"/>
                        <mxPoint x="790" y="1660" as="targetPoint"/>
                    </mxGeometry>
                </mxCell>
                <mxCell id="34" value="Base de Données" style="pointerEvents=1;shadow=0;dashed=0;html=1;aspect=fixed;labelPosition=center;verticalLabelPosition=bottom;verticalAlign=top;align=center;outlineConnect=0;shape=mxgraph.vvd.storage;fontSize=15;fontStyle=1;fillColor=#000099;strokeColor=#000099;" parent="1" vertex="1">
                    <mxGeometry x="772.5" y="30" width="45" height="60" as="geometry"/>
                </mxCell>
                <mxCell id="35" value="API" style="pointerEvents=1;shadow=0;dashed=0;html=1;strokeColor=none;aspect=fixed;labelPosition=center;verticalLabelPosition=bottom;verticalAlign=top;align=center;outlineConnect=0;shape=mxgraph.vvd.guest_agent_customization;fontSize=15;fontStyle=1;fillColor=#000099;" parent="1" vertex="1">
                    <mxGeometry x="482.39" y="30" width="65.22" height="60" as="geometry"/>
                </mxCell>
                <mxCell id="36" value="" style="endArrow=none;startArrow=none;endFill=0;startFill=0;endSize=8;html=1;verticalAlign=bottom;dashed=1;labelBackgroundColor=none;dashPattern=10 10;fontSize=15;" parent="1" edge="1">
                    <mxGeometry width="160" relative="1" as="geometry">
                        <mxPoint x="960" y="120" as="sourcePoint"/>
                        <mxPoint x="960" y="1650" as="targetPoint"/>
                    </mxGeometry>
                </mxCell>
                <mxCell id="37" value="YELP" style="pointerEvents=1;shadow=0;dashed=0;html=1;aspect=fixed;labelPosition=center;verticalLabelPosition=bottom;verticalAlign=top;align=center;outlineConnect=0;shape=mxgraph.vvd.guest_agent_customization;fontSize=15;fontStyle=1;fillColor=#009900;strokeColor=none;" parent="1" vertex="1">
                    <mxGeometry x="930" y="30" width="65.22" height="60" as="geometry"/>
                </mxCell>
                <mxCell id="45" value="" style="html=1;points=[];perimeter=orthogonalPerimeter;fontSize=15;strokeWidth=1;" parent="1" vertex="1">
                    <mxGeometry x="294" y="170" width="10" height="350" as="geometry"/>
                </mxCell>
                <mxCell id="49" value="" style="html=1;points=[];perimeter=orthogonalPerimeter;fontSize=15;strokeWidth=1;" parent="1" vertex="1">
                    <mxGeometry x="510" y="250" width="10" height="250" as="geometry"/>
                </mxCell>
                <mxCell id="54" value="Recherche_restaurant&lt;br style=&quot;font-size: 15px&quot;&gt;(localisation, spécialité, nom)" style="html=1;verticalAlign=bottom;endArrow=block;fontSize=15;" parent="1" edge="1">
                    <mxGeometry y="-40" width="80" relative="1" as="geometry">
                        <mxPoint x="70" y="170" as="sourcePoint"/>
                        <mxPoint x="300" y="170" as="targetPoint"/>
                        <mxPoint as="offset"/>
                    </mxGeometry>
                </mxCell>
                <mxCell id="55" value="Requête_recherche&lt;br style=&quot;font-size: 15px&quot;&gt;(localisation, spécialité,nom)" style="html=1;verticalAlign=bottom;endArrow=block;fontSize=15;exitX=0.986;exitY=0.22;exitDx=0;exitDy=0;exitPerimeter=0;" parent="1" source="45" edge="1">
                    <mxGeometry x="-0.0672" y="-43" width="80" relative="1" as="geometry">
                        <mxPoint x="380" y="180" as="sourcePoint"/>
                        <mxPoint x="510" y="247" as="targetPoint"/>
                        <mxPoint as="offset"/>
                        <Array as="points"/>
                    </mxGeometry>
                </mxCell>
                <mxCell id="56" value="Requete_recherche(localisation, spécialité, nom)" style="html=1;verticalAlign=bottom;endArrow=block;fontSize=15;" parent="1" edge="1">
                    <mxGeometry width="80" relative="1" as="geometry">
                        <mxPoint x="520" y="280.0000000000001" as="sourcePoint"/>
                        <mxPoint x="960" y="280" as="targetPoint"/>
                    </mxGeometry>
                </mxCell>
                <mxCell id="57" value="" style="html=1;points=[];perimeter=orthogonalPerimeter;fontSize=15;strokeWidth=1;" parent="1" vertex="1">
                    <mxGeometry x="957.61" y="280" width="10" height="130" as="geometry"/>
                </mxCell>
                <mxCell id="58" value="Liste_restaurant" style="html=1;verticalAlign=bottom;endArrow=open;dashed=1;endSize=8;fontSize=15;exitX=0.196;exitY=1.016;exitDx=0;exitDy=0;exitPerimeter=0;" parent="1" source="57" target="49" edge="1">
                    <mxGeometry relative="1" as="geometry">
                        <mxPoint x="1250" y="220" as="sourcePoint"/>
                        <mxPoint x="1170" y="220" as="targetPoint"/>
                    </mxGeometry>
                </mxCell>
                <mxCell id="59" value="Retourne_liste" style="html=1;verticalAlign=bottom;endArrow=open;dashed=1;endSize=8;fontSize=15;entryX=1.271;entryY=0.881;entryDx=0;entryDy=0;entryPerimeter=0;" parent="1" target="45" edge="1">
                    <mxGeometry x="0.0714" y="-10" relative="1" as="geometry">
                        <mxPoint x="510" y="478" as="sourcePoint"/>
                        <mxPoint x="310" y="480" as="targetPoint"/>
                        <Array as="points"/>
                        <mxPoint as="offset"/>
                    </mxGeometry>
                </mxCell>
                <mxCell id="67" value="Afficher_résultats" style="html=1;verticalAlign=bottom;endArrow=open;dashed=1;endSize=8;fontSize=15;" parent="1" edge="1">
                    <mxGeometry relative="1" as="geometry">
                        <mxPoint x="280" y="520" as="sourcePoint"/>
                        <mxPoint x="66.66" y="520" as="targetPoint"/>
                    </mxGeometry>
                </mxCell>
                <mxCell id="68" value="Choix_resto(Nom_resto)" style="html=1;verticalAlign=bottom;endArrow=block;fontSize=15;" parent="1" target="83" edge="1">
                    <mxGeometry width="80" relative="1" as="geometry">
                        <mxPoint x="66.67" y="560.0000000000001" as="sourcePoint"/>
                        <mxPoint x="299.01" y="557" as="targetPoint"/>
                    </mxGeometry>
                </mxCell>
                <mxCell id="69" value="" style="html=1;points=[];perimeter=orthogonalPerimeter;fontSize=15;strokeWidth=1;" parent="1" vertex="1">
                    <mxGeometry x="294.34" y="1100" width="10" height="480" as="geometry"/>
                </mxCell>
                <mxCell id="73" value="Valider_commande &lt;br&gt;(Info_utilisateur)" style="html=1;verticalAlign=bottom;endArrow=block;fontSize=15;" parent="1" edge="1">
                    <mxGeometry x="-0.015" y="-40" width="80" relative="1" as="geometry">
                        <mxPoint x="70.00000000000009" y="1320" as="sourcePoint"/>
                        <mxPoint x="293.34" y="1320" as="targetPoint"/>
                        <mxPoint x="1" as="offset"/>
                    </mxGeometry>
                </mxCell>
                <mxCell id="78" value="L'utilisateur reprend la recherche si la liste renvoyée est vide" style="shape=note2;boundedLbl=1;whiteSpace=wrap;html=1;size=25;verticalAlign=top;align=center;fontSize=15;" parent="1" vertex="1">
                    <mxGeometry x="100" y="280" width="120" height="140" as="geometry"/>
                </mxCell>
                <mxCell id="79" value="" style="endArrow=none;startArrow=none;endFill=0;startFill=0;endSize=8;html=1;verticalAlign=bottom;dashed=1;labelBackgroundColor=none;dashPattern=10 10;fontSize=15;exitX=0.5;exitY=1;exitDx=0;exitDy=0;exitPerimeter=0;" parent="1" source="78" edge="1">
                    <mxGeometry width="160" relative="1" as="geometry">
                        <mxPoint x="280" y="460" as="sourcePoint"/>
                        <mxPoint x="250" y="500" as="targetPoint"/>
                    </mxGeometry>
                </mxCell>
                <mxCell id="83" value="" style="html=1;points=[];perimeter=orthogonalPerimeter;fontSize=15;align=center;" parent="1" vertex="1">
                    <mxGeometry x="294.02" y="560" width="10" height="490" as="geometry"/>
                </mxCell>
                <mxCell id="85" value="Client" style="pointerEvents=1;shadow=0;dashed=0;html=1;strokeColor=none;aspect=fixed;labelPosition=center;verticalLabelPosition=bottom;verticalAlign=top;align=center;outlineConnect=0;shape=mxgraph.vvd.laptop;fontSize=15;fontStyle=1;fillColor=#0000CC;" parent="1" vertex="1">
                    <mxGeometry x="257.34000000000003" y="30" width="83.33" height="60" as="geometry"/>
                </mxCell>
                <mxCell id="89" value="Requête_recherche&lt;br style=&quot;font-size: 15px&quot;&gt;(Nom_resto)" style="html=1;verticalAlign=bottom;endArrow=block;fontSize=15;exitX=0.986;exitY=0.22;exitDx=0;exitDy=0;exitPerimeter=0;" parent="1" edge="1">
                    <mxGeometry x="-0.0672" y="-43" width="80" relative="1" as="geometry">
                        <mxPoint x="310.0099999999999" y="590" as="sourcePoint"/>
                        <mxPoint x="516.15" y="590" as="targetPoint"/>
                        <mxPoint as="offset"/>
                        <Array as="points"/>
                    </mxGeometry>
                </mxCell>
                <mxCell id="90" value="" style="html=1;points=[];perimeter=orthogonalPerimeter;fontSize=15;strokeWidth=1;" parent="1" vertex="1">
                    <mxGeometry x="510.01" y="593" width="10" height="407" as="geometry"/>
                </mxCell>
                <mxCell id="91" value="Requête_recherche&lt;br style=&quot;font-size: 15px&quot;&gt;(Nom_resto)" style="html=1;verticalAlign=bottom;endArrow=block;fontSize=15;exitX=0.986;exitY=0.22;exitDx=0;exitDy=0;exitPerimeter=0;entryX=0.382;entryY=0.006;entryDx=0;entryDy=0;entryPerimeter=0;" parent="1" target="92" edge="1">
                    <mxGeometry x="-0.0672" y="-43" width="80" relative="1" as="geometry">
                        <mxPoint x="520.01" y="630" as="sourcePoint"/>
                        <mxPoint x="726.1499999999999" y="630" as="targetPoint"/>
                        <mxPoint as="offset"/>
                        <Array as="points"/>
                    </mxGeometry>
                </mxCell>
                <mxCell id="92" value="" style="html=1;points=[];perimeter=orthogonalPerimeter;fontSize=15;strokeWidth=1;" parent="1" vertex="1">
                    <mxGeometry x="957.62" y="630" width="10" height="70" as="geometry"/>
                </mxCell>
                <mxCell id="93" value="" style="html=1;points=[];perimeter=orthogonalPerimeter;fontSize=15;strokeWidth=1;" parent="1" vertex="1">
                    <mxGeometry x="786.01" y="760" width="10" height="70" as="geometry"/>
                </mxCell>
                <mxCell id="94" value="Objet_resto" style="html=1;verticalAlign=bottom;endArrow=open;dashed=1;endSize=8;fontSize=15;" parent="1" target="90" edge="1">
                    <mxGeometry x="0.044" y="30" relative="1" as="geometry">
                        <mxPoint x="970.01" y="700" as="sourcePoint"/>
                        <mxPoint x="687.62" y="699.9999999999998" as="targetPoint"/>
                        <Array as="points"/>
                        <mxPoint as="offset"/>
                    </mxGeometry>
                </mxCell>
                <mxCell id="95" value="Requête_menu_et_avis(Nom_resto)" style="html=1;verticalAlign=bottom;endArrow=block;fontSize=15;exitX=0.986;exitY=0.22;exitDx=0;exitDy=0;exitPerimeter=0;" parent="1" edge="1">
                    <mxGeometry x="-0.037" y="-30" width="80" relative="1" as="geometry">
                        <mxPoint x="520.01" y="760" as="sourcePoint"/>
                        <mxPoint x="790.01" y="760" as="targetPoint"/>
                        <mxPoint as="offset"/>
                        <Array as="points"/>
                    </mxGeometry>
                </mxCell>
                <mxCell id="96" value="Retourne(Menu, Avis)" style="html=1;verticalAlign=bottom;endArrow=open;dashed=1;endSize=8;fontSize=15;exitX=-0.314;exitY=0.986;exitDx=0;exitDy=0;exitPerimeter=0;" parent="1" source="93" edge="1">
                    <mxGeometry x="0.044" y="30" relative="1" as="geometry">
                        <mxPoint x="970.01" y="820" as="sourcePoint"/>
                        <mxPoint x="520" y="830" as="targetPoint"/>
                        <Array as="points"/>
                        <mxPoint as="offset"/>
                    </mxGeometry>
                </mxCell>
                <mxCell id="98" value="Creer_objet_Restaurant&lt;br&gt;(Objet_resto, Menus, Avis)" style="edgeStyle=orthogonalEdgeStyle;html=1;align=left;spacingLeft=2;endArrow=block;rounded=0;entryX=1;entryY=0;fontSize=15;" parent="1" edge="1">
                    <mxGeometry relative="1" as="geometry">
                        <mxPoint x="520.01" y="909" as="sourcePoint"/>
                        <Array as="points">
                            <mxPoint x="550.01" y="909"/>
                        </Array>
                        <mxPoint x="525.01" y="929" as="targetPoint"/>
                    </mxGeometry>
                </mxCell>
                <mxCell id="99" value="Resultats(Restaurant)" style="html=1;verticalAlign=bottom;endArrow=open;dashed=1;endSize=8;fontSize=15;exitX=-0.314;exitY=0.986;exitDx=0;exitDy=0;exitPerimeter=0;" parent="1" edge="1">
                    <mxGeometry x="0.044" y="30" relative="1" as="geometry">
                        <mxPoint x="520.0000000000001" y="1000" as="sourcePoint"/>
                        <mxPoint x="310" y="1001" as="targetPoint"/>
                        <Array as="points"/>
                        <mxPoint as="offset"/>
                    </mxGeometry>
                </mxCell>
                <mxCell id="100" value="Afficher(restaurant)" style="html=1;verticalAlign=bottom;endArrow=open;dashed=1;endSize=8;fontSize=15;exitX=-0.314;exitY=0.986;exitDx=0;exitDy=0;exitPerimeter=0;" parent="1" edge="1">
                    <mxGeometry x="0.044" y="30" relative="1" as="geometry">
                        <mxPoint x="300.01" y="1050" as="sourcePoint"/>
                        <mxPoint x="70" y="1051" as="targetPoint"/>
                        <Array as="points"/>
                        <mxPoint as="offset"/>
                    </mxGeometry>
                </mxCell>
                <mxCell id="104" value="Loop" style="shape=umlFrame;whiteSpace=wrap;html=1;width=73;height=20;boundedLbl=1;verticalAlign=middle;align=left;spacingLeft=5;fontSize=15;" parent="1" vertex="1">
                    <mxGeometry x="-80" y="1110" width="540" height="180" as="geometry"/>
                </mxCell>
                <mxCell id="105" value="While &lt;br&gt;Ajout_menu =='Oui&quot;&amp;nbsp;" style="text;html=1;align=center;verticalAlign=middle;resizable=0;points=[];autosize=1;strokeColor=none;fontSize=15;" parent="1" vertex="1">
                    <mxGeometry x="-80" y="1140" width="150" height="40" as="geometry"/>
                </mxCell>
                <mxCell id="106" value="Ajout_menu" style="html=1;verticalAlign=bottom;endArrow=block;fontSize=15;" parent="1" edge="1">
                    <mxGeometry width="80" relative="1" as="geometry">
                        <mxPoint x="66.67000000000007" y="1150.0000000000002" as="sourcePoint"/>
                        <mxPoint x="300" y="1150" as="targetPoint"/>
                    </mxGeometry>
                </mxCell>
                <mxCell id="108" value="Ajoute_liste_menu" style="edgeStyle=orthogonalEdgeStyle;html=1;align=left;spacingLeft=2;endArrow=block;rounded=0;fontSize=15;" parent="1" edge="1">
                    <mxGeometry x="-0.5597" y="10" relative="1" as="geometry">
                        <mxPoint x="307.34000000000026" y="1189.97" as="sourcePoint"/>
                        <Array as="points">
                            <mxPoint x="337.34000000000003" y="1189.97"/>
                        </Array>
                        <mxPoint x="310" y="1220" as="targetPoint"/>
                        <mxPoint as="offset"/>
                    </mxGeometry>
                </mxCell>
                <mxCell id="109" value="Creer_objet_commande&lt;br&gt;(Liste_menus, etc)" style="edgeStyle=orthogonalEdgeStyle;html=1;align=left;spacingLeft=2;endArrow=block;rounded=0;fontSize=15;" parent="1" edge="1">
                    <mxGeometry x="-0.5597" y="10" relative="1" as="geometry">
                        <mxPoint x="310.66000000000014" y="1350" as="sourcePoint"/>
                        <Array as="points">
                            <mxPoint x="340.66" y="1350"/>
                        </Array>
                        <mxPoint x="313.31999999999977" y="1380.03" as="targetPoint"/>
                        <mxPoint as="offset"/>
                    </mxGeometry>
                </mxCell>
                <mxCell id="110" value="Requête_insertion&lt;br&gt;(Commande)" style="html=1;verticalAlign=bottom;endArrow=block;fontSize=15;" parent="1" edge="1">
                    <mxGeometry x="0.0131" y="-40" width="80" relative="1" as="geometry">
                        <mxPoint x="307.34000000000026" y="1420" as="sourcePoint"/>
                        <mxPoint x="510" y="1420" as="targetPoint"/>
                        <mxPoint x="-1" as="offset"/>
                    </mxGeometry>
                </mxCell>
                <mxCell id="111" value="Requête_insertion&lt;br&gt;(Commande)" style="html=1;verticalAlign=bottom;endArrow=block;fontSize=15;" parent="1" edge="1">
                    <mxGeometry x="0.0131" y="-40" width="80" relative="1" as="geometry">
                        <mxPoint x="520.0000000000001" y="1440" as="sourcePoint"/>
                        <mxPoint x="780" y="1440" as="targetPoint"/>
                        <mxPoint x="-1" as="offset"/>
                    </mxGeometry>
                </mxCell>
                <mxCell id="113" value="" style="html=1;points=[];perimeter=orthogonalPerimeter;fontSize=15;strokeWidth=1;" parent="1" vertex="1">
                    <mxGeometry x="510" y="1420" width="10" height="110" as="geometry"/>
                </mxCell>
                <mxCell id="114" value="Message" style="html=1;verticalAlign=bottom;endArrow=open;dashed=1;endSize=8;fontSize=15;exitX=-0.314;exitY=0.986;exitDx=0;exitDy=0;exitPerimeter=0;" parent="1" edge="1">
                    <mxGeometry x="0.044" y="30" relative="1" as="geometry">
                        <mxPoint x="520" y="1530" as="sourcePoint"/>
                        <mxPoint x="300" y="1531" as="targetPoint"/>
                        <Array as="points"/>
                        <mxPoint as="offset"/>
                    </mxGeometry>
                </mxCell>
                <mxCell id="116" value="Afficher(Message)" style="html=1;verticalAlign=bottom;endArrow=open;dashed=1;endSize=8;fontSize=15;exitX=-0.314;exitY=0.986;exitDx=0;exitDy=0;exitPerimeter=0;" parent="1" edge="1">
                    <mxGeometry x="0.044" y="30" relative="1" as="geometry">
                        <mxPoint x="294.34000000000003" y="1580" as="sourcePoint"/>
                        <mxPoint x="74.34000000000023" y="1581" as="targetPoint"/>
                        <Array as="points"/>
                        <mxPoint as="offset"/>
                    </mxGeometry>
                </mxCell>
            </root>
        </mxGraphModel>
    </diagram>
</mxfile>